<?xml version="1.0" encoding="UTF-8"?>
<svg width="164px" height="28px" viewBox="0 0 164 28" version="1.1" xmlns="http://www.w3.org/2000/svg" xmlns:xlink="http://www.w3.org/1999/xlink">
    <g stroke="none" stroke-width="1" fill="none" fill-rule="evenodd">
        <g fill="#ffffff">
            <path d="M0.104610189,4.26685902 C0.506557241,6.59421677 0.809523326,8.04814613 1.01350844,8.62864708 C1.31948612,9.49939851 3.12262621,14.2647398 3.68137679,15.1963254 C4.24012736,16.127911 4.9022759,17.4214898 4.9022759,18.3799789 C4.9022759,19.3384681 6.1729317,25.2537088 6.96968985,26.398378 C7.766448,27.5430472 9.7608584,27.5564606 11.5624507,26.398378 C13.3640429,25.2402954 12.6165791,22.1954452 12.3258429,21.5849662 C12.0351066,20.9744871 10.3500743,15.1813605 10.1921004,14.4848987 C10.0867844,14.0205908 9.94805246,13.1260319 9.77590445,11.801222 C19.6776898,16.1870599 25.2700298,18.7273275 26.5529244,19.4220246 C28.4772663,20.4640702 29.0827055,20.7958374 30.0808118,20.566712 C31.078918,20.3375866 31.0306402,19.6897372 31.0306402,18.814947 C31.0306402,17.9401568 30.5781173,15.5690597 29.1377553,15.000997 C27.6973934,14.4329342 15.948028,8.8176241 15.567813,8.62864708 C15.187598,8.43967006 15.3192948,8.03215592 15.1166964,8.03215592 C14.9140979,8.03215592 14.3533,7.92020183 14.2744943,7.80739894 C14.1956887,7.69459604 14.1585195,7.56508492 14.2744943,7.48190116 C14.3904691,7.3987174 18.5096004,8.14538222 20.0390908,7.48190116 C21.5685812,6.81842009 21.5952539,3.68780397 21.1237182,3.38487799 C20.6521825,3.08195202 20.749919,2.1244011 18.554563,2.1244011 C16.359207,2.1244011 4.89333354,0.757042784 4.10229665,1.03805902 C3.31125977,1.31907525 3.1047402,0.704965373 1.60467519,1.62250311 C0.104610189,2.54004085 0.313830568,2.4574136 0.104610189,2.9211458 C-0.0348700631,3.23030059 -0.0348700631,3.67887167 0.104610189,4.26685902 Z" id="r"></path>
            <path d="M51.2025237,3.59555551 C50.7641991,2.98908503 50.2530862,2.59081585 49.6691851,2.40074799 C48.7933335,2.1156462 45.6546954,1.87024885 44.8697885,2.07655691 C44.0848815,2.28286496 36.9208653,2.08266028 34.9513159,2.24170414 C32.9817665,2.40074799 31.4792099,2.72493907 30.747458,2.40074799 C30.015706,2.07655691 29.930733,2.29000327 29.2090261,2.29000327 C28.4873193,2.29000327 25.4858961,2.32681699 25.1819818,2.59055108 C24.8780674,2.85428518 21.1026621,2.51613563 22.1991112,6.38399655 C23.2955603,10.2518575 22.9671483,8.28856059 22.9671483,8.92713945 C22.9671483,9.56571832 23.1118792,11.0135396 23.3529607,11.4574698 C23.5940421,11.9014 23.9706294,13.3315911 23.9706294,13.6241279 C23.9706294,13.9166647 27.4399679,21.6076962 27.3024121,22.3931585 C27.1648563,23.1786207 27.3024121,23.6097384 27.3024121,23.9171377 C27.3024121,24.2245371 28.2873337,25.7628073 30.747458,25.4056299 C33.2075822,25.0484526 35.4269204,24.2640273 37.0399436,23.9171377 C38.6529668,23.5702481 49.7747746,22.1297191 51.5536434,21.3800899 C53.3325121,20.6304607 52.9768256,19.3865243 52.8426224,18.9472146 C52.7084191,18.507905 52.54638,16.9046193 49.3760419,17.2974321 C46.2057038,17.6902449 34.6766646,19.3390944 33.5168095,19.7665854 C32.3569543,20.1940764 32.2048677,19.5659025 31.9858349,19.1242603 C31.7668021,18.6826181 31.0222307,17.3292335 31.3451427,16.92779 C31.6680547,16.5263466 40.4352261,15.2740242 41.1381458,14.9939588 C41.8410654,14.7138933 43.342202,14.4595462 43.7153903,14.4595462 C44.0885787,14.4595462 52.5182415,14.3579539 53.1381082,13.8949595 C53.757975,13.4319651 53.7771917,13.3128856 53.7675834,12.9635259 C53.757975,12.6141663 53.4125228,10.909965 51.8787096,10.1894027 C50.3448965,9.46884045 50.6932953,9.31171188 49.9559504,9.31171188 C49.2186055,9.31171188 46.6305537,9.16111315 44.8697885,9.51368755 C43.1090233,9.86626196 38.9778158,10.4262974 37.8845304,10.4262974 C36.7912449,10.4262974 33.2431383,11.266603 32.4147526,11.4574698 C31.5863668,11.6483366 30.1909278,11.759758 29.880008,11.4574698 C29.5690883,11.1551816 29.3120474,8.79302172 29.4405678,8.44109582 C29.5690883,8.08916992 29.5317156,7.78894287 29.880008,7.70744971 C30.2283005,7.62595654 38.9843706,6.81971363 40.0612582,6.97514082 C41.1381458,7.130568 51.2285771,6.86374665 51.5536434,6.68714614 C51.8787096,6.51054563 52.5767814,6.24163319 52.5767814,6.10396022 C52.5767814,5.96628726 52.3355263,5.21243772 52.107118,4.94656048 C51.9548457,4.76930898 51.6533143,4.31897399 51.2025237,3.59555551 Z" id="e1"></path>
            <path d="M75.2748993,13.2391256 C76.5156478,13.8552927 77.6260634,13.8552927 78.606146,13.2391256 C80.0762699,12.3148749 80.0434894,7.63691312 79.8023691,7.12960511 C79.5612488,6.6222971 78.7880161,5.33614684 77.8948805,4.78834534 C77.0017449,4.24054385 74.3376767,1.15813057 73.7952218,1.15813057 C73.2527668,1.15813057 73.0639725,0.557477189 72.1302558,0.557477189 C71.1965391,0.557477189 68.3166809,-0.399466287 65.2917649,0.194175238 C62.2668489,0.787816762 60.1512462,1.41105808 59.4821429,1.89239177 C58.8130397,2.37372546 53.5174814,4.56473515 51.6679445,7.87599636 C49.8184075,11.1872576 49.3486645,11.1523965 49.1418039,12.8911104 C48.9349433,14.6298244 48.8870602,15.4229481 49.4693897,16.9773188 C50.0517191,18.5316894 51.8656143,22.2441171 54.327055,23.7068315 C56.7884956,25.1695459 58.2276881,26.2045622 59.4821429,26.7233894 C60.7365978,27.2422167 64.3656848,27.6799327 65.7933848,27.6799327 C67.2210847,27.6799327 73.2507794,25.9452908 74.0644531,25.2948357 C74.8781268,24.6443806 76.0353136,23.6525468 75.8154595,22.2914435 C75.5956054,20.9303402 76.0168843,21.5075868 75.7082394,21.0898719 C75.3995946,20.6721571 75.1669368,21.1815074 74.615695,20.2273682 C74.0644531,19.273229 74.5239416,19.8892096 74.2941974,19.4689956 C74.0644531,19.0487816 72.6486271,18.1948464 72.2958901,18.1151116 C71.9431531,18.0353769 70.8832166,18.1326057 70.494242,18.3688347 C70.1052674,18.6050637 69.5844329,18.9078772 69.5844329,19.1884364 C69.5844329,19.4689956 69.6925509,19.6692845 69.786626,20.2273682 C69.880701,20.7854518 69.8961125,21.1353326 69.786626,21.368646 C69.6771394,21.6019594 69.9967329,21.8926175 69.9967329,22.0920305 C69.9967329,22.2914435 69.5249889,22.6750461 69.3294603,22.6750461 C69.1339317,22.6750461 67.9282115,22.9708977 67.6988254,23.1167409 C67.4694392,23.2625841 63.4317672,23.2890631 62.8570226,22.8901514 C62.2822779,22.4912397 58.0909847,21.7440418 56.8548866,18.9482882 C55.6187885,16.1525346 53.9280835,13.018067 55.0132621,11.364884 C56.0984407,9.71170095 55.7529802,10.0874748 55.9257105,9.59100232 C56.0984407,9.09452987 57.4264029,8.1027864 57.8120655,8.1027864 C58.1977281,8.1027864 59.4365988,7.78560593 59.7734644,7.58755298 C60.11033,7.38950002 60.7235078,6.14785517 62.8570226,5.29529641 C64.9905374,4.44273765 68.2960845,4.67669531 68.8127724,4.98599586 C69.3294603,5.29529641 71.6407528,5.7213905 72.9676903,7.58755298 C73.3468534,8.13143534 73.2958158,8.66602597 73.7952218,8.50419457 C74.2946278,8.34236316 74.4087089,8.97934918 74.615695,9.34857293 C74.8226811,9.71779668 75.4440576,10.5893248 75.4440576,11.0432666 C75.4440576,11.3458944 75.3876715,12.0778474 75.2748993,13.2391256 Z" id="c1"></path>
            <path d="M99.135375,3.82850276 C98.717961,3.66952289 98.3749582,3.54804884 96.4385065,3.66952289 C94.5020547,3.79099694 91.6564332,4.04871141 91.3681407,4.04871141 C91.0798481,4.04871141 87.1360668,4.55053067 86.7356517,4.55053067 C86.4687083,4.55053067 84.6681348,4.68518659 81.3339312,4.95449842 C80.6948093,3.87392867 80.2853422,3.31078408 80.1055298,3.26506467 C79.8358111,3.19648555 78.4584991,2.86236128 78.0039104,3.06371298 C77.5493217,3.26506467 76.697478,3.2199945 76.545465,3.39260927 C76.393452,3.56522405 75.7669483,4.00426163 75.6826411,4.16467536 C75.5983339,4.32508909 75.2036827,4.38973548 75.1070963,4.38973548 C75.01051,4.38973548 74.0479088,5.54147441 74.0479088,6.55345705 C74.0479088,7.56543968 73.8488448,9.01481307 74.2622595,9.36709893 C74.6756742,9.71938478 75.2788001,10.0361889 75.4807206,10.240614 C75.6826411,10.4450391 76.2983081,11.263988 76.2983081,12.1008772 C76.2983081,12.9377664 76.3563601,13.8917172 75.9185404,14.2329159 C75.4807206,14.5741147 74.5050539,15.5346247 74.5050539,16.0289068 C74.5050539,16.5231889 75.0429008,17.6298126 75.4807206,17.9561779 C75.9185404,18.2825431 76.1599131,18.2112293 76.2983081,18.5080704 C76.4367031,18.8049116 76.2983081,18.7861023 76.2983081,18.9849547 C76.2983081,19.1838071 76.312126,20.1825517 76.545465,20.700436 C76.7788039,21.2183204 77.583531,21.9081229 77.583531,22.5401651 C77.583531,23.1722072 77.5863423,24.5135609 77.471503,24.6249073 C77.3566637,24.7362537 77.6013937,24.9467778 77.8244632,25.067364 C78.0475327,25.1879502 78.9926875,25.8656941 79.5491086,25.8656941 C80.1055298,25.8656941 83.7104595,25.4887773 83.9958651,25.3851128 C84.2812707,25.2814484 85.3608942,24.9380369 85.5291847,24.9380369 C85.6974753,24.9380369 86.2155348,24.9770753 86.5536396,24.8437774 C86.8917443,24.7104795 95.2990079,22.0993006 95.8687572,22.0993006 C96.4385065,22.0993006 97.0837963,21.7679224 97.2555609,21.6974985 C97.4273255,21.6270745 102.451026,20.2729425 102.725348,20.2729425 C102.999671,20.2729425 103.518108,20.0658009 103.518108,19.5881272 C103.518108,19.1104535 102.670181,17.5978299 102.444844,17.4190303 C102.219508,17.2402307 101.762011,16.4830441 101.180825,16.4830441 C100.599639,16.4830441 100.10068,16.5680118 99.872544,16.4830441 C99.6444083,16.3980764 99.4769519,16.3883958 99.135375,16.3932361 C98.7937981,16.3980764 95.5233282,17.2366733 94.6020962,17.5577662 C93.6808642,17.878859 85.7437055,19.9078204 85.5291847,19.9078204 C85.3146639,19.9078204 84.2492484,20.0783756 83.9958651,20.1131709 C83.7424819,20.1479662 82.5712497,20.4949425 82.3907613,20.2292349 C82.2102728,19.9635272 82.1889279,19.2860977 82.1889279,18.9849547 C82.1889279,18.6838117 82.1518972,18.2120939 82.3269614,17.7574669 C82.5020256,17.3028399 82.6760196,17.3700488 82.9851611,17.3700488 C83.2943025,17.3700488 83.8304986,17.3485459 83.9958651,17.2767883 C84.1612317,17.2050307 84.6812432,16.9475547 84.762001,16.8965946 C84.8427587,16.8456345 85.2818324,16.7116789 85.4055086,16.8041368 C85.5291847,16.8965946 85.7092986,17.1419326 85.9320391,17.1419326 C86.1547796,17.1419326 86.5812152,17.0380665 86.7356517,16.9673306 C86.8900882,16.8965946 87.830444,16.3932361 88.2850642,16.3932361 C88.7396845,16.3932361 95.102514,15.283835 95.6175135,15.283835 C96.1325129,15.283835 101.150037,14.7093056 101.336523,14.4328471 C101.52301,14.1563885 102.22478,12.3586805 102.001907,11.7224876 C101.779034,11.0862946 101.6501,10.240614 101.180825,10.240614 C100.711551,10.240614 95.6044382,10.4439776 94.024748,10.7163449 C92.4450579,10.9887122 88.1335966,11.7224876 87.4346241,11.7224876 C86.7356517,11.7224876 85.6530804,11.9598399 85.2883811,11.9598399 C84.9236818,11.9598399 84.0355033,11.9439064 83.7588386,12.0223918 C83.4821739,12.1008772 82.7712918,12.3847449 82.5213732,12.2973961 C82.2714545,12.2100473 81.9328516,11.6687392 82.0187205,11.1925421 C82.1045895,10.7163449 82.2304511,10.1041471 82.7955474,9.94258794 C83.3606436,9.78102875 91.4460289,8.69615431 92.0794316,8.69615431 C92.7128343,8.69615431 93.2882949,8.5783736 93.5566293,8.45397823 C93.8249636,8.32958287 98.4377549,8.32542984 98.9082196,8.210562 C99.3786842,8.09569417 101.719077,8.29392933 101.719077,6.34183241 C101.719077,4.38973548 99.5527889,3.98748263 99.135375,3.82850276 Z" id="e2"></path>
            <path d="M125.412546,15.3689773 C125.686209,15.2697163 126.545792,15.0610504 126.84322,13.9305849 C127.140649,12.8001194 128.00498,10.9685791 127.163441,8.70318317 C126.321901,6.43778722 126.375744,5.62670415 124.66029,3.98646578 C122.944836,2.3462274 120.31542,0.0906730899 118.990543,0.0906730899 C117.665665,0.0906730899 113.23531,-0.226198006 111.711066,0.324777093 C110.186823,0.875752193 107.530925,2.28520933 107.149814,2.28520933 C106.768703,2.28520933 104.672238,3.28667101 103.628386,4.34774112 C102.584534,5.40881122 100.386258,7.91473311 100.386258,7.73414079 C100.386258,7.55354847 100.413323,8.04067516 100.274626,8.19868715 C100.135929,8.35669915 99.8712236,8.44684831 99.8004294,8.61851318 C99.7296352,8.79017806 98.7409115,11.4374481 99.0650708,13.6549271 C99.3892301,15.8724061 100.018688,18.0690364 101.316158,19.9557739 C102.613627,21.8425115 104.624231,23.0415215 104.943512,23.4194694 C105.262792,23.7974174 105.364085,24.0435465 105.588031,24.1870072 C105.811976,24.3304679 105.820043,24.1403481 106.22485,24.3210261 C106.629657,24.5017041 111.272857,26.5012625 113.260991,26.5012625 C115.249125,26.5012625 118.663991,27.1606318 121.66214,26.1795071 C124.66029,25.1983824 126.345652,23.5181961 126.498554,22.0067709 C126.651457,20.4953457 126.957093,20.5378579 126.613005,19.9557739 C126.268917,19.37369 125.667253,19.3838376 125.412546,18.916456 C125.157839,18.4490744 124.847589,17.9285845 124.543647,17.9285845 C124.239704,17.9285845 123.004086,17.5070885 122.64497,17.6167539 C122.285854,17.7264192 121.418381,17.6979412 120.983396,18.4358357 C120.54841,19.1737302 120.353704,19.0383704 120.451057,19.3605146 C120.54841,19.6826587 120.827659,19.6111068 120.905527,19.8909264 C120.983396,20.1707461 121.244694,21.3537969 120.394743,21.8059478 C119.544792,22.2580986 118.562018,22.6879532 116.83295,22.6879532 C115.103882,22.6879532 113.038911,22.8481865 111.971075,22.258735 C110.90324,21.6692835 111.233965,21.9380501 111.06708,21.9134377 C110.900194,21.8888253 109.301088,21.2520364 109.075368,21.0277351 C108.849648,20.8034337 103.982562,17.3422248 103.982562,14.5913053 C103.982562,11.8403857 105.15937,7.95193022 109.075368,6.32332769 C112.991367,4.69472517 114.203582,4.00750259 116.83295,4.62353405 C119.462318,5.23956551 120.565741,6.89302574 120.983396,7.97222222 C121.40105,9.0514187 121.849563,11.0769453 121.377545,12.2179861 C120.905527,13.3590269 120.33843,13.418051 120.394743,13.8201451 C120.451057,14.2222392 120.464627,14.5811176 120.724011,14.7239173 C120.983396,14.8667171 121.544916,14.8209097 121.837513,14.955805 C122.13011,15.0907002 123.706674,15.4682384 124.214572,15.4682384 C124.72247,15.4682384 125.138883,15.4682384 125.412546,15.3689773 Z" id="c2"></path>
            <path d="M130.893351,17.7951954 C131.673495,18.8681876 132.181399,19.5989461 132.417064,19.987471 C132.770561,20.5702584 132.749953,21.3972817 133.389366,21.6367834 C134.02878,21.876285 134.962141,22.6770893 136.547215,22.1215011 C138.132289,21.565913 138.182601,21.9609943 138.405365,21.6367834 C138.628129,21.3125725 138.612563,21.2046251 138.911601,21.085443 C139.210639,20.966261 140.344088,20.774016 140.344088,20.161122 C140.344088,19.5482279 140.333254,18.1445185 139.803933,17.6358328 C139.274613,17.1271472 137.726886,16.226706 137.244131,16.226706 C136.761376,16.226706 129.936909,15.2134236 128.838721,15.2134236 C127.740533,15.2134236 126.091671,15.2490333 126.091671,14.718048 C126.091671,14.1870628 123.643232,14.1261739 124.044418,11.8273443 C124.445605,9.52851481 124.60992,7.44273567 126.091671,5.89183091 C127.573423,4.34092614 131.028859,1.34657925 132.760831,1.34657925 C134.492802,1.34657925 136.702196,0.178171527 140.344088,2.13197897 C143.98598,4.08578642 145.333329,8.42289434 145.333329,9.37664528 C145.333329,10.3303962 146.16988,12.6892876 144.121487,12.6892876 C142.073094,12.6892876 140.324941,12.579726 140.134685,11.6569196 C139.944429,10.7341131 138.178375,7.69329248 137.79005,7.46744905 C137.401726,7.24160563 136.744188,6.12530701 135.586058,6.12530701 C134.427928,6.12530701 134.572185,5.99827488 133.717025,6.28632714 C132.861865,6.5743794 130.730694,8.11498991 130.454022,8.40673318 C130.177351,8.69847644 129.008301,10.0007095 129.008301,10.2507751 C129.008301,10.5008408 129.055208,10.8374913 129.395088,10.8374913 C129.734968,10.8374913 134.034368,11.8263463 134.392787,11.6569196 C134.751206,11.4874928 135.100999,11.4864948 135.586058,11.6569196 C136.071118,11.8273443 138.48038,12.0503085 138.911601,12.2785363 C139.342822,12.5067641 141.620435,13.4120477 142.283318,14.0650479 C142.946201,14.718048 145.413055,16.7568836 145.750801,17.7951954 C146.088547,18.8335072 146.325698,18.8723437 146.245803,19.5167329 C146.165907,20.161122 145.694033,21.2090667 145.333329,21.5127227 C144.972625,21.8163787 143.465712,24.0479794 143.083287,24.0479794 C142.700862,24.0479794 142.031832,24.5721252 141.913812,24.7758851 C141.795792,24.9796451 141.07298,25.4811628 140.883108,25.4811628 C140.693236,25.4811628 138.558235,26.4065871 137.343759,26.4982082 C136.129282,26.5898293 133.088476,26.5936121 132.075451,26.1204395 C131.062425,25.647267 130.519175,25.1967273 130.260212,25.1967273 C130.001249,25.1967273 129.474275,24.6847007 129.241288,24.4953035 C129.008301,24.3059063 127.658532,22.2599371 127.658532,22.1215011 C127.658532,21.9830651 127.619871,21.6548117 127.41983,21.5127227 C127.21979,21.3706337 127.156059,21.1296876 127.156059,20.9252873 C127.156059,20.720887 127.41983,20.5261668 127.41983,20.2568189 C127.41983,19.987471 127.288714,19.5843112 127.41983,19.3320808 C127.550947,19.0798503 127.898453,18.8703849 127.898453,18.617321 C127.898453,18.364257 128.69987,17.4971588 129.395088,17.3193664 C129.858567,17.2008382 130.357987,17.3594479 130.893351,17.7951954 Z" id="Path-641"></path>
            <path d="M147.893351,18.7951954 C148.673495,19.8681876 149.181399,20.5989461 149.417064,20.987471 C149.770561,21.5702584 149.749953,22.3972817 150.389366,22.6367834 C151.02878,22.876285 151.962141,23.6770893 153.547215,23.1215011 C155.132289,22.565913 155.182601,22.9609943 155.405365,22.6367834 C155.628129,22.3125725 155.612563,22.2046251 155.911601,22.085443 C156.210639,21.966261 157.344088,21.774016 157.344088,21.161122 C157.344088,20.5482279 157.333254,19.1445185 156.803933,18.6358328 C156.274613,18.1271472 154.726886,17.226706 154.244131,17.226706 C153.761376,17.226706 146.936909,16.2134236 145.838721,16.2134236 C144.740533,16.2134236 143.091671,16.2490333 143.091671,15.718048 C143.091671,15.1870628 140.643232,15.1261739 141.044418,12.8273443 C141.445605,10.5285148 141.60992,8.44273567 143.091671,6.89183091 C144.573423,5.34092614 148.028859,2.34657925 149.760831,2.34657925 C151.492802,2.34657925 153.702196,1.17817153 157.344088,3.13197897 C160.98598,5.08578642 162.333329,9.42289434 162.333329,10.3766453 C162.333329,11.3303962 163.16988,13.6892876 161.121487,13.6892876 C159.073094,13.6892876 157.324941,13.579726 157.134685,12.6569196 C156.944429,11.7341131 155.178375,8.69329248 154.79005,8.46744905 C154.401726,8.24160563 153.744188,7.12530701 152.586058,7.12530701 C151.427928,7.12530701 151.572185,6.99827488 150.717025,7.28632714 C149.861865,7.5743794 147.730694,9.11498991 147.454022,9.40673318 C147.177351,9.69847644 146.008301,11.0007095 146.008301,11.2507751 C146.008301,11.5008408 146.055208,11.8374913 146.395088,11.8374913 C146.734968,11.8374913 151.034368,12.8263463 151.392787,12.6569196 C151.751206,12.4874928 152.100999,12.4864948 152.586058,12.6569196 C153.071118,12.8273443 155.48038,13.0503085 155.911601,13.2785363 C156.342822,13.5067641 158.620435,14.4120477 159.283318,15.0650479 C159.946201,15.718048 162.413055,17.7568836 162.750801,18.7951954 C163.088547,19.8335072 163.325698,19.8723437 163.245803,20.5167329 C163.165907,21.161122 162.694033,22.2090667 162.333329,22.5127227 C161.972625,22.8163787 160.465712,25.0479794 160.083287,25.0479794 C159.700862,25.0479794 159.031832,25.5721252 158.913812,25.7758851 C158.795792,25.9796451 158.07298,26.4811628 157.883108,26.4811628 C157.693236,26.4811628 155.558235,27.4065871 154.343759,27.4982082 C153.129282,27.5898293 150.088476,27.5936121 149.075451,27.1204395 C148.062425,26.647267 147.519175,26.1967273 147.260212,26.1967273 C147.001249,26.1967273 146.474275,25.6847007 146.241288,25.4953035 C146.008301,25.3059063 144.658532,23.2599371 144.658532,23.1215011 C144.658532,22.9830651 144.619871,22.6548117 144.41983,22.5127227 C144.21979,22.3706337 144.156059,22.1296876 144.156059,21.9252873 C144.156059,21.720887 144.41983,21.5261668 144.41983,21.2568189 C144.41983,20.987471 144.288714,20.5843112 144.41983,20.3320808 C144.550947,20.0798503 144.898453,19.8703849 144.898453,19.617321 C144.898453,19.364257 145.69987,18.4971588 146.395088,18.3193664 C146.858567,18.2008382 147.357987,18.3594479 147.893351,18.7951954 Z" id="Path-641-Copy"></path>
        </g>
    </g>
</svg>